<?xml version="1.0" encoding="UTF-8" standalone="no"?>
<!-- Created with Inkscape (http://www.inkscape.org/) -->

<svg
   xmlns:pencil="http://www.evolus.vn/Namespace/Pencil"
   xmlns:dc="http://purl.org/dc/elements/1.1/"
   xmlns:cc="http://creativecommons.org/ns#"
   xmlns:rdf="http://www.w3.org/1999/02/22-rdf-syntax-ns#"
   xmlns:svg="http://www.w3.org/2000/svg"
   xmlns="http://www.w3.org/2000/svg"
   xmlns:sodipodi="http://sodipodi.sourceforge.net/DTD/sodipodi-0.dtd"
   xmlns:inkscape="http://www.inkscape.org/namespaces/inkscape"
   id="svg4608"
   version="1.1"
   inkscape:version="0.91 r13725"
   width="64"
   height="64"
   sodipodi:docname="opt_2.svg"
   viewBox="'0 0 64 64'">
  <metadata
     id="metadata4614">
    <rdf:RDF>
      <cc:Work
         rdf:about="">
        <dc:format>image/svg+xml</dc:format>
        <dc:type
           rdf:resource="http://purl.org/dc/dcmitype/StillImage" />
      </cc:Work>
    </rdf:RDF>
  </metadata>
  <defs
     id="defs4612" />
  <sodipodi:namedview
     pagecolor="#ffffff"
     bordercolor="#666666"
     borderopacity="1"
     objecttolerance="10"
     gridtolerance="10"
     guidetolerance="10"
     inkscape:pageopacity="0"
     inkscape:pageshadow="2"
     inkscape:window-width="1301"
     inkscape:window-height="744"
     id="namedview4610"
     showgrid="false"
     inkscape:zoom="3.6875"
     inkscape:cx="-14.237288"
     inkscape:cy="32"
     inkscape:window-x="65"
     inkscape:window-y="24"
     inkscape:window-maximized="1"
     inkscape:current-layer="svg4608"
     inkscape:snap-page="true"
     inkscape:snap-bbox="true"
     inkscape:bbox-paths="true"
     inkscape:snap-bbox-edge-midpoints="true"
     inkscape:snap-bbox-midpoints="true" />
  <inkscape:clipboard
     style="color:#000000;clip-rule:nonzero;display:inline;overflow:visible;visibility:visible;opacity:1;isolation:auto;mix-blend-mode:normal;color-interpolation:sRGB;color-interpolation-filters:linearRGB;solid-color:#000000;solid-opacity:1;fill:#000000;fill-opacity:1;fill-rule:nonzero;stroke-width:1;stroke-linecap:butt;stroke-linejoin:miter;stroke-miterlimit:4;stroke-dasharray:none;stroke-dashoffset:0;stroke-opacity:1;filter-blend-mode:normal;filter-gaussianBlur-deviation:0;color-rendering:auto;image-rendering:auto;shape-rendering:auto;text-rendering:auto;enable-background:accumulate"
     min="175,159"
     max="239,223" />
  <path
     style="fill:#664500;fill-opacity:1;fill-rule:nonzero;stroke:none"
     d="m 25.26316,29.47368 c 0,3.257263 -1.884632,5.894737 -4.210526,5.894737 -2.325895,0 -4.210527,-2.637474 -4.210527,-5.894737 0,-3.255579 1.884632,-5.894737 4.210527,-5.894737 2.325894,0 4.210526,2.639158 4.210526,5.894737"
     pencil:name="path26"
     id="1ecc4bf191354d70949fda70b63273e9"
     inkscape:connector-curvature="0" />
  <path
     style="fill:#664500;fill-opacity:1;fill-rule:nonzero;stroke:none"
     d="m 47.15789,29.47368 c 0,3.257263 -1.884632,5.894737 -4.210526,5.894737 -2.325895,0 -4.210527,-2.637474 -4.210527,-5.894737 0,-3.255579 1.884632,-5.894737 4.210527,-5.894737 2.325894,0 4.210526,2.639158 4.210526,5.894737"
     pencil:name="path30"
     id="512e9db15d874098a64cbd43597dad9e"
     inkscape:connector-curvature="0" />
  <path
     style="fill:#664500;fill-opacity:1;fill-rule:nonzero;stroke:none"
     d="m 43.78947,45.47368 c -10.817721,3.570341 -17.215661,1.473795 -23.578947,0 -0.905709,-0.20977 -1.684211,-0.752842 -1.684211,-1.68421 0,-0.931369 0.805557,-1.987984 1.684211,-1.684211 9.035935,3.123946 16.778201,2.752566 23.578947,0 0.863334,-0.34943 1.68421,0.752842 1.68421,1.684211 0,0.931368 -0.752842,1.68421 -1.68421,1.68421"
     pencil:name="path34"
     id="2c213cbbef3348399ad357ebeb7aeb83"
     inkscape:connector-curvature="0"
     sodipodi:nodetypes="csssssc" />
  <path
     inkscape:connector-curvature="0"
     style="fill:#ffffff;fill-rule:evenodd;stroke:none;stroke-width:1px;stroke-linecap:butt;stroke-linejoin:miter;stroke-opacity:1"
     d="M 0,9.4e-7 0,64 63.999999,64 63.999999,9.4e-7 0,9.4e-7 Z M 31.999999,3.3691419 c 15.813053,0 28.630859,12.8178061 28.630859,28.6308581 0,15.813052 -12.817806,28.630859 -28.630859,28.630859 C 16.186947,60.630859 3.3691409,47.813052 3.3691409,32 3.3691409,16.186948 16.186947,3.3691419 31.999999,3.3691419 Z"
     id="path4143" />
</svg>
