<?xml version="1.0" encoding="UTF-8" standalone="no"?>
<!-- Created with Inkscape (http://www.inkscape.org/) -->

<svg
   xmlns:pencil="http://www.evolus.vn/Namespace/Pencil"
   xmlns:dc="http://purl.org/dc/elements/1.1/"
   xmlns:cc="http://creativecommons.org/ns#"
   xmlns:rdf="http://www.w3.org/1999/02/22-rdf-syntax-ns#"
   xmlns:svg="http://www.w3.org/2000/svg"
   xmlns="http://www.w3.org/2000/svg"
   xmlns:sodipodi="http://sodipodi.sourceforge.net/DTD/sodipodi-0.dtd"
   xmlns:inkscape="http://www.inkscape.org/namespaces/inkscape"
   width="64"
   height="64"
   viewBox="0 0 64.000001 64.000001"
   id="svg6296"
   version="1.1"
   inkscape:version="0.91 r13725"
   sodipodi:docname="opt_3.svg">
  <defs
     id="defs6298" />
  <sodipodi:namedview
     id="base"
     pagecolor="#ffffff"
     bordercolor="#666666"
     borderopacity="1.0"
     inkscape:pageopacity="0.0"
     inkscape:pageshadow="2"
     inkscape:zoom="2.8"
     inkscape:cx="-71.566069"
     inkscape:cy="39.266626"
     inkscape:document-units="px"
     inkscape:current-layer="layer1"
     showgrid="false"
     inkscape:snap-bbox="true"
     inkscape:bbox-paths="true"
     inkscape:bbox-nodes="true"
     inkscape:snap-bbox-edge-midpoints="true"
     inkscape:snap-bbox-midpoints="true"
     inkscape:snap-page="true"
     units="px"
     inkscape:window-width="1301"
     inkscape:window-height="744"
     inkscape:window-x="65"
     inkscape:window-y="24"
     inkscape:window-maximized="1" />
  <metadata
     id="metadata6301">
    <rdf:RDF>
      <cc:Work
         rdf:about="">
        <dc:format>image/svg+xml</dc:format>
        <dc:type
           rdf:resource="http://purl.org/dc/dcmitype/StillImage" />
        <dc:title />
      </cc:Work>
    </rdf:RDF>
  </metadata>
  <g
     inkscape:label="Layer 1"
     inkscape:groupmode="layer"
     id="layer1"
     transform="translate(0,-988.36216)">
    <path
       style="fill:#664500;fill-opacity:1;fill-rule:nonzero;stroke:none"
       d="m 25.263152,1017.8358 c 0,3.2573 -1.88463,5.8948 -4.21053,5.8948 -2.32589,0 -4.21052,-2.6375 -4.21052,-5.8948 0,-3.2556 1.88463,-5.8947 4.21052,-5.8947 2.3259,0 4.21053,2.6391 4.21053,5.8947"
       pencil:name="path26"
       id="028599f119424687b0f98ad3b9415444"
       inkscape:connector-curvature="0" />
    <path
       style="fill:#664500;fill-opacity:1;fill-rule:nonzero;stroke:none"
       d="m 47.157892,1017.8358 c 0,3.2573 -1.88464,5.8948 -4.21053,5.8948 -2.32589,0 -4.21053,-2.6375 -4.21053,-5.8948 0,-3.2556 1.88464,-5.8947 4.21053,-5.8947 2.32589,0 4.21053,2.6391 4.21053,5.8947"
       pencil:name="path30"
       id="01ecbcb09ee744e689bc4e645fcf4526"
       inkscape:connector-curvature="0" />
    <path
       style="fill:#664500;fill-opacity:1;fill-rule:nonzero;stroke:none"
       d="m 21.894732,1037.2042 c 3.36842,-8.421 21.89474,-8.421 21.89474,-5.0526 0,1.6842 -13.47369,-1.6842 -21.89474,5.0526"
       pencil:name="path34"
       id="183b1d4409c2444fb5d90b92a2ccee33"
       inkscape:connector-curvature="0" />
    <path
       inkscape:connector-curvature="0"
       style="fill:#ffffff;fill-rule:evenodd;stroke:none;stroke-width:1px;stroke-linecap:butt;stroke-linejoin:miter;stroke-opacity:1"
       d="m 0,988.36199 0,64.00021 63.999999,0 0,-64.00021 -63.999999,0 z m 31.999999,3.36914 c 15.813053,0 28.630859,12.81787 28.630859,28.63097 0,15.813 -12.817806,28.6309 -28.630859,28.6309 -15.813052,0 -28.630858,-12.8179 -28.630858,-28.6309 0,-15.8131 12.817806,-28.63097 28.630858,-28.63097 z"
       id="path4143" />
  </g>
</svg>
